<?xml version="1.0" encoding="iso-8859-1"?>
<!-- Generator: Adobe Illustrator 19.0.0, SVG Export Plug-In . SVG Version: 6.00 Build 0)  -->
<svg version="1.1" id="Layer_1" xmlns="http://www.w3.org/2000/svg" xmlns:xlink="http://www.w3.org/1999/xlink" x="0px" y="0px"
	 viewBox="0 0 512 512" style="enable-background:new 0 0 512 512;" xml:space="preserve">
<rect x="60.954" style="fill:#82DCC7;" width="390.092" height="512"/>
<rect x="60.954" style="fill:#74CBB4;" width="390.092" height="162.502"/>
<rect x="101.589" y="35.548" style="fill:#F8F8F8;" width="308.828" height="95.698"/>
<g>
	<rect x="264.051" y="343.851" style="fill:#65B4BB;" width="61.158" height="55.309"/>
	<rect x="264.051" y="419.24" style="fill:#65B4BB;" width="61.158" height="55.309"/>
	<rect x="264.051" y="268.476" style="fill:#65B4BB;" width="61.158" height="55.309"/>
	<rect x="264.051" y="193.1" style="fill:#65B4BB;" width="61.158" height="55.309"/>
	<rect x="345.29" y="268.476" style="fill:#65B4BB;" width="61.158" height="55.309"/>
	<rect x="345.29" y="193.1" style="fill:#65B4BB;" width="61.158" height="55.309"/>
	<rect x="345.29" y="419.24" style="fill:#65B4BB;" width="61.158" height="55.309"/>
	<rect x="345.29" y="343.851" style="fill:#65B4BB;" width="61.158" height="55.309"/>
	<rect x="182.826" y="343.851" style="fill:#65B4BB;" width="61.158" height="55.309"/>
	<rect x="101.589" y="268.476" style="fill:#65B4BB;" width="61.158" height="55.309"/>
	<rect x="101.589" y="419.24" style="fill:#65B4BB;" width="61.158" height="55.309"/>
	<rect x="182.826" y="419.24" style="fill:#65B4BB;" width="61.158" height="55.309"/>
	<rect x="101.589" y="193.1" style="fill:#65B4BB;" width="61.158" height="55.309"/>
	<rect x="101.589" y="343.851" style="fill:#65B4BB;" width="61.158" height="55.309"/>
	<rect x="182.826" y="268.476" style="fill:#65B4BB;" width="61.158" height="55.309"/>
	<rect x="182.826" y="193.1" style="fill:#65B4BB;" width="61.158" height="55.309"/>
</g>
<rect x="345.391" y="86.58" style="fill:#D6D6D6;" width="43.455" height="19.076"/>
<g>
</g>
<g>
</g>
<g>
</g>
<g>
</g>
<g>
</g>
<g>
</g>
<g>
</g>
<g>
</g>
<g>
</g>
<g>
</g>
<g>
</g>
<g>
</g>
<g>
</g>
<g>
</g>
<g>
</g>
</svg>
