<svg id="Capa_1" enable-background="new 0 0 512 512" height="512" viewBox="0 0 512 512" width="512" xmlns="http://www.w3.org/2000/svg"><g><g><path d="m497.326 212.803h-482.652c-8.104 0-14.674-6.57-14.674-14.674v-161.323c0-8.104 6.57-14.674 14.674-14.674h482.653c8.104 0 14.674 6.57 14.674 14.674v161.323c-.001 8.104-6.571 14.674-14.675 14.674z" fill="#8ac9fe"/><path d="m511.998 36.81v161.316c0 8.109-6.564 14.673-14.673 14.673h-20.608c8.109 0 14.673-6.564 14.673-14.673v-161.316c0-8.109-6.564-14.673-14.673-14.673h20.608c8.109 0 14.673 6.564 14.673 14.673z" fill="#60b7ff"/><g fill="#26a6fe"><path d="m338.468 88.238c-.025-.069-.053-.138-.081-.206-1.354-3.29-4.524-5.415-8.082-5.415-.003 0-.006 0-.009 0-3.561.003-6.731 2.135-8.08 5.431-.023.057-.046.113-.067.17l-20.539 53.929c-1.475 3.871.469 8.204 4.34 9.678 3.865 1.476 8.203-.468 9.678-4.339l3.275-8.601h22.647l3.238 8.579c1.133 3.003 3.987 4.854 7.018 4.854.88 0 1.775-.156 2.647-.485 3.875-1.462 5.831-5.79 4.368-9.665zm-13.853 35.648 5.662-14.867 5.611 14.867z"/><path d="m230.964 82.618c-4.143 0-7.5 3.358-7.5 7.5v31.547l-24.658-35.707c-1.865-2.701-5.268-3.875-8.404-2.898-3.133.977-5.268 3.878-5.268 7.16v54.597c0 4.142 3.357 7.5 7.5 7.5s7.5-3.358 7.5-7.5v-30.539l23.247 33.663c2.179 3.147 5.824 4.482 9.28 3.4 3.525-1.101 5.803-4.386 5.803-8.367v-52.856c0-4.142-3.358-7.5-7.5-7.5z"/><path d="m84.552 131.348c-3.174-2.66-7.904-2.244-10.565.932-.454.542-.944 1.048-1.46 1.507-2.63 2.343-6.001 3.531-10.021 3.531-10.945 0-19.85-8.904-19.85-19.85s8.904-19.85 19.85-19.85c3.978 0 7.813 1.171 11.093 3.386 3.433 2.319 8.095 1.416 10.413-2.017s1.416-8.095-2.017-10.413c-5.769-3.896-12.508-5.956-19.489-5.956-19.216 0-34.85 15.633-34.85 34.85s15.634 34.85 34.85 34.85c7.7 0 14.615-2.535 19.995-7.328 1.058-.94 2.061-1.976 2.983-3.076 2.661-3.175 2.244-7.906-.932-10.566z"/><path d="m423.538 131.352c-3.174-2.663-7.904-2.249-10.566.924-.457.544-.949 1.052-1.465 1.511-2.63 2.343-6.001 3.531-10.021 3.531-10.945 0-19.85-8.904-19.85-19.85s8.904-19.85 19.85-19.85c3.979 0 7.814 1.17 11.092 3.385 3.435 2.32 8.096 1.417 10.414-2.016s1.416-8.094-2.016-10.413c-5.768-3.897-12.507-5.957-19.49-5.957-19.216 0-34.85 15.633-34.85 34.85s15.634 34.85 34.85 34.85c7.7 0 14.615-2.535 19.995-7.328 1.055-.938 2.058-1.972 2.98-3.072 2.664-3.172 2.25-7.903-.923-10.565z"/><path d="m290.271 82.618h-30.208c-4.143 0-7.5 3.358-7.5 7.5s3.357 7.5 7.5 7.5h7.543v47.199c0 4.142 3.357 7.5 7.5 7.5s7.5-3.358 7.5-7.5v-47.199h7.665c4.143 0 7.5-3.358 7.5-7.5s-3.357-7.5-7.5-7.5z"/><path d="m476.844 82.618h-30.208c-4.143 0-7.5 3.358-7.5 7.5s3.357 7.5 7.5 7.5h7.543v47.199c0 4.142 3.357 7.5 7.5 7.5s7.5-3.358 7.5-7.5v-47.199h7.665c4.143 0 7.5-3.358 7.5-7.5s-3.358-7.5-7.5-7.5z"/><path d="m136.185 82.618c-19.216 0-34.85 15.633-34.85 34.85s15.634 34.85 34.85 34.85 34.85-15.633 34.85-34.85-15.635-34.85-34.85-34.85zm0 54.699c-10.945 0-19.85-8.904-19.85-19.85s8.904-19.85 19.85-19.85 19.85 8.904 19.85 19.85-8.905 19.85-19.85 19.85z"/></g></g><g><g><path d="m461.521 287.173c-11.407 0-20.653 9.247-20.653 20.654v-23.711c0-11.407-9.247-20.654-20.654-20.654-11.407 0-20.654 9.247-20.654 20.654v-14.546c0-11.407-9.247-20.654-20.653-20.654-11.407 0-20.654 9.247-20.654 20.654v-78.616c0-11.446-9.279-20.725-20.725-20.725-11.446 0-20.725 9.279-20.725 20.725v140.232c0 3.59-4.538 5.154-6.749 2.327l-18.864-24.111c-7.806-9.978-22.192-11.807-32.248-4.102-10.11 7.746-12.043 22.214-4.323 32.343l53.634 74.348c5.119 7.096 7.874 15.625 7.874 24.375v53.497h139.553v-53.013c0-12.115 4.757-23.746 13.247-32.388 8.49-8.642 13.247-20.273 13.247-32.388v-52.758-11.489c0-11.407-9.246-20.654-20.653-20.654z" fill="#ffcebf"/><g fill="#ffb09e"><path d="m358.251 190.949v148.061h-.083c-11.402 0-20.645-9.243-20.645-20.645v-127.416c0-7.663-4.162-14.356-10.359-17.94 3.047-1.766 6.579-2.778 10.359-2.778 11.454 0 20.728 9.275 20.728 20.718z"/><path d="m399.563 270.079v68.931h-.01c-11.402 0-20.645-9.243-20.645-20.645v-48.799c0-7.643-4.152-14.315-10.328-17.878 3.319-1.919 7.229-2.95 11.382-2.741 11.073.554 19.601 10.045 19.601 21.132z"/><path d="m440.864 284.117v54.893c-11.402 0-20.645-9.243-20.645-20.645v-34.247c0-7.643-4.152-14.315-10.328-17.878 3.036-1.766 6.568-2.778 10.328-2.778 11.402-.001 20.645 9.243 20.645 20.655z"/><path d="m461.52 287.174c-3.759 0-7.292 1.012-10.328 2.778 6.176 3.553 10.328 10.225 10.328 17.878v59.363c0 6.062-1.188 11.991-3.439 17.495-2.251 5.505-5.567 10.565-9.811 14.893-8.489 8.644-13.24 20.274-13.24 32.388v57.897h20.656v-53.021c0-12.115 4.751-23.744 13.24-32.388 4.245-4.328 7.56-9.388 9.811-14.893 2.252-5.505 3.439-11.433 3.439-17.495v-64.24c0-11.411-9.244-20.655-20.656-20.655z"/></g></g></g></g></svg>