<svg xmlns="http://www.w3.org/2000/svg" xmlns:xlink="http://www.w3.org/1999/xlink" width="204" height="163" viewBox="0 0 204 163"><defs><path id="a" d="M5.648 6.286h51.92a4 4 0 0 1 4 4v3.14H1.648v-3.14a4 4 0 0 1 4-4z"/></defs><g fill="none" fill-rule="evenodd"><rect width="204" height="163" fill="#FFF" rx="6"/><g transform="translate(16 3)"><path fill="#E6E7E8" fill-rule="nonzero" d="M89.36 17h-3.196c1.721 1.173 2.95 3.05 2.95 5.239v117.366c0 2.267-1.229 4.222-3.114 5.395h3.443c3.606 0 6.557-2.815 6.557-6.255V23.255C95.918 19.815 92.967 17 89.36 17z"/><path stroke="#8E8F92" stroke-linecap="round" stroke-width="3" d="M89.436 145H6.564C2.954 145 0 142.185 0 138.745V23.255C0 19.815 2.954 17 6.564 17h82.872C93.046 17 96 19.815 96 23.255v115.411c0 3.52-2.954 6.334-6.564 6.334z"/><path stroke="#8E8F92" stroke-linecap="round" stroke-width="2" d="M8 23h81v111H8z"/><path fill="#FFF" fill-rule="nonzero" stroke="#8E8F92" stroke-linecap="round" stroke-width="3" d="M56.75 8.64c.167-1.84-.167-3.76-2.583-6.08-1.334-1.28-3.084-2.08-5-2.08-4.25 0-7.667 3.28-7.667 7.36 0 .24 0 .56.083.8h-11.75C28.25 8.64 27 9.84 27 11.36V27.6h44.5V11.36c0-1.52-1.25-2.72-2.833-2.72H56.75z"/><path d="M68.25 8.64h-5.833c1.583 0 2.833 1.2 2.833 2.72V27.6h5.833V11.36c0-1.44-1.25-2.72-2.833-2.72zM49 3.52c2.167 2.08 2.75 3.84 2.667 5.52 0 .24.25.48.5.48H57c.25 0 .5-.16.5-.48.083-1.52-.333-3.2-2.167-5.12-1.916-2-4.666-2.96-7.416-2.32h-.084c-.416.08-.5.64-.083.88.417.4.833.72 1.25 1.04z" fill="#E6E7E8" fill-rule="nonzero"/><path stroke="#8E8F92" stroke-linecap="round" stroke-width="3" d="M56.75 8.64c.167-1.84-.167-3.76-2.583-6.08-1.334-1.28-3.084-2.08-5-2.08-4.25 0-7.667 3.28-7.667 7.36 0 .24 0 .56.083.8h-11.75C28.25 8.64 27 9.84 27 11.36V27.6h44.5V11.36c0-1.52-1.25-2.72-2.833-2.72H56.75z"/><ellipse cx="63" cy="57.5" fill="#BED2D6" fill-rule="nonzero" rx="15" ry="14.5"/><path d="M58 49h10v18H58z"/><text fill="#FFF" font-family="Helvetica" font-size="26.343"><tspan x="60" y="70">!</tspan></text><path d="M35.3 85.054h42.535m-60.588 0h9.81m-9.81 9.919h60.588M62.173 105.13h15.662m-60.588 0h35.364m-16.321 9.838h41.545m-60.588 0h9.81m-9.81-71.809h23.905v30.152H17.247z" stroke="#D1D3D4" stroke-linecap="round" stroke-width="3"/></g><path fill="#FFF" fill-rule="nonzero" stroke="#8E8F92" stroke-width="2.804" d="M155.382 157.224H77.17c-3.115 0-5.664-3.028-5.664-6.729V43.785c0-3.7 2.549-6.729 5.664-6.729h78.166c3.115 0 5.664 3.028 5.664 6.729v106.71c.048 3.701-2.501 6.73-5.617 6.73z"/><path stroke="#A7A9AC" stroke-linecap="round" stroke-width="2.804" d="M105.15 99.916h41.383"/><path stroke="#F9C2BB" stroke-linecap="round" stroke-width="2.804" d="M87.598 99.916h9.589"/><path stroke="#A7A9AC" stroke-linecap="round" stroke-width="2.804" d="M87.598 109.897h58.935"/><path stroke="#F9C2BB" stroke-linecap="round" stroke-width="2.804" d="M125.168 120.159h13.85"/><path stroke="#A7A9AC" stroke-linecap="round" stroke-width="2.804" d="M87.598 120.159h31.178m-12.673 9.925h40.43"/><path stroke="#F9C2BB" stroke-linecap="round" stroke-width="2.804" d="M87.598 130.084h9.589"/><path fill="#FFF" fill-rule="nonzero" stroke="#A7A9AC" stroke-linecap="round" stroke-linejoin="round" stroke-width="1.682" d="M86.757 53.71h25.738v33.757H86.757z"/><g fill-rule="nonzero"><g fill="#FFF"><path d="M92.477 85.505v-3.701c0-2.804 2.299-5.16 5.159-5.16h.056v-.504c-2.468-.673-4.43-2.523-5.215-4.934-1.066-.225-1.795-1.178-1.795-2.243 0-.842.449-1.57 1.122-2.02v-.504c0-3.7 2.58-6.84 6.168-7.57.168-.729.841-1.233 1.57-1.233.729 0 1.402.504 1.57 1.233 3.533.73 6.168 3.87 6.168 7.57v.393c.785.336 1.346 1.177 1.346 2.13a2.346 2.346 0 0 1-1.85 2.3c-.785 2.41-2.804 4.317-5.215 4.934v.505h.056c2.804 0 5.159 2.299 5.159 5.159v3.7h-14.3v-.055z"/><path d="M99.486 58.084c.617 0 1.121.505 1.121 1.122h-.224a7.217 7.217 0 0 1 6.337 7.177h-.561c.056.224.168.449.224.673.953.056 1.738.841 1.738 1.794 0 1.01-.785 1.795-1.738 1.795a6.917 6.917 0 0 1-5.327 4.99v1.402h.56c2.524 0 4.599 2.075 4.599 4.599v3.196H93.037v-3.196c0-2.524 2.075-4.599 4.599-4.599h.56v-1.401c-2.58-.561-4.654-2.468-5.327-4.991a1.786 1.786 0 0 1-1.682-1.795c0-.953.729-1.738 1.682-1.794.056-.224.112-.449.224-.673h-.785c0-3.7 2.748-6.729 6.337-7.177h-.224c-.057-.617.448-1.122 1.065-1.122zm0-1.01c-.897 0-1.626.562-1.963 1.29-3.644.898-6.28 4.206-6.28 8.02v.223a2.842 2.842 0 0 0-1.122 2.243c0 1.234.786 2.3 1.907 2.692.449 1.178 1.122 2.243 2.075 3.14.673.673 1.514 1.178 2.355 1.57-2.58.561-4.486 2.804-4.486 5.496v4.206h15.197v-4.206c0-2.692-1.907-4.991-4.487-5.496.841-.392 1.682-.897 2.355-1.57.898-.84 1.627-1.906 2.02-3.084a2.776 2.776 0 0 0 2.018-2.691c0-1.01-.561-1.907-1.346-2.412v-.056c0-3.813-2.636-7.121-6.28-8.018-.28-.785-1.066-1.346-1.963-1.346z"/></g><g transform="translate(90.065 57.187)"><g transform="translate(0 8.972)"><circle cx="2.748" cy="2.523" r="1.794" fill="#FFF"/><path fill="#8E8F92" d="M2.748 4.766A2.25 2.25 0 0 1 .505 2.523 2.25 2.25 0 0 1 2.748.28 2.25 2.25 0 0 1 4.99 2.523c-.056 1.234-1.01 2.243-2.243 2.243zm0-3.645c-.785 0-1.402.617-1.402 1.402 0 .785.617 1.402 1.402 1.402.785 0 1.402-.617 1.402-1.402-.057-.785-.673-1.402-1.402-1.402z"/></g><g transform="translate(13.458 8.972)"><circle cx="2.636" cy="2.523" r="1.794" fill="#FFF"/><path fill="#8E8F92" d="M2.636 4.766A2.25 2.25 0 0 1 .393 2.523 2.25 2.25 0 0 1 2.636.28a2.25 2.25 0 0 1 2.243 2.243 2.25 2.25 0 0 1-2.243 2.243zm0-3.645c-.786 0-1.402.617-1.402 1.402 0 .785.616 1.402 1.402 1.402.785 0 1.401-.617 1.401-1.402 0-.785-.616-1.402-1.401-1.402z"/></g><path fill="#BED2D6" d="M2.804 27.533v-3.197c0-2.523 2.075-4.598 4.598-4.598h3.925c2.523 0 4.598 2.075 4.598 4.598v3.197"/><path fill="#8E8F92" d="M16.374 27.533h-.841v-3.197c0-2.299-1.907-4.205-4.206-4.205H7.402c-2.3 0-4.206 1.906-4.206 4.205v3.197h-.84v-3.197a5.026 5.026 0 0 1 5.046-5.046h3.925a5.026 5.026 0 0 1 5.047 5.046v3.197z"/><path fill="#FFF" d="M9.364 21.7a1.388 1.388 0 0 1-1.401-1.4v-2.188c0-.785.616-1.402 1.401-1.402.786 0 1.402.617 1.402 1.402V20.3c.056.785-.616 1.402-1.402 1.402z"/><path fill="#8E8F92" d="M9.364 22.15a1.867 1.867 0 0 1-1.85-1.85v-2.188c0-1.01.841-1.85 1.85-1.85 1.01 0 1.851.84 1.851 1.85V20.3c0 1.01-.841 1.85-1.85 1.85zm0-5.103c-.56 0-1.009.448-1.009 1.01v2.186c0 .56.449 1.01 1.01 1.01.56 0 1.009-.45 1.009-1.01v-2.187c0-.56-.449-1.01-1.01-1.01z"/><g transform="translate(1.682 3.925)"><circle cx="7.682" cy="7.514" r="7.009" fill="#FFF"/><path fill="#8E8F92" d="M7.682 14.972c-4.093 0-7.458-3.308-7.458-7.458A7.42 7.42 0 0 1 7.682.056a7.42 7.42 0 0 1 7.458 7.458c0 4.15-3.364 7.458-7.458 7.458zm0-14.019c-3.645 0-6.56 2.972-6.56 6.561 0 3.645 2.971 6.56 6.56 6.56 3.645 0 6.561-2.971 6.561-6.56.056-3.645-2.916-6.56-6.56-6.56z"/></g><path fill="#FFDBD5" d="M9.308 1.738c-3.98 0-7.233 3.253-7.233 7.234h14.467c0-3.981-3.252-7.234-7.234-7.234z"/><path fill="#8E8F92" d="M16.935 9.42H1.626v-.448c0-4.206 3.42-7.682 7.682-7.682 4.206 0 7.683 3.42 7.683 7.682v.449h-.056zM2.467 8.58h13.626c-.224-3.59-3.196-6.393-6.785-6.393-3.644 0-6.616 2.804-6.84 6.392z"/><circle cx="6.449" cy="11.215" r="1" fill="#8E8F92"/><circle cx="12.056" cy="11.215" r="1" fill="#8E8F92"/><circle cx="7.178" cy="11.383" r="1" fill="#FFF"/><circle cx="12.785" cy="11.383" r="1" fill="#FFF"/><path fill="#FFF" d="M9.308.673c-.616 0-1.121.505-1.121 1.121h2.243c0-.616-.505-1.121-1.122-1.121z"/><path fill="#8E8F92" d="M10.766 2.13H7.85v-.336c0-.785.673-1.458 1.458-1.458.785 0 1.458.673 1.458 1.458v.337zM8.58 1.459h1.402c-.112-.28-.392-.449-.729-.449-.28 0-.56.169-.673.449z"/><path fill="#FFF" d="M9.308 16.766a2.25 2.25 0 0 0 2.243-2.243h-4.43c-.056 1.234.954 2.243 2.187 2.243z"/><path fill="#8E8F92" d="M9.308 16.935a2.393 2.393 0 0 1-2.41-2.412v-.168h4.766v.168c0 1.346-1.066 2.412-2.356 2.412zm-2.074-2.243c.112 1.065.953 1.906 2.074 1.906 1.066 0 1.963-.841 2.075-1.906h-4.15z"/><path fill="#FFF" d="M8.692 12.28v1.514h.672"/><path fill="#8E8F92" d="M9.364 13.963h-.84V12.28h.336v1.346h.504z"/></g><path fill="#BED2D6" d="M101.729 76.925h-1.682c2.523 0 4.598 2.075 4.598 4.598v3.197h1.682v-3.197c.056-2.523-2.075-4.598-4.598-4.598z" opacity=".54"/><path fill="#8E8F92" d="M106.44 84.72h-.842v-3.197c0-2.299-1.906-4.205-4.205-4.205h-.786v-.841h.786a5.026 5.026 0 0 1 5.046 5.046v3.197z"/><path fill="#FFDBD5" d="M92.42 66.103s7.515-6.224 13.739 0H92.42z"/><path fill="#8E8F92" d="M106.159 66.551H92.42a.422.422 0 0 1-.393-.28.436.436 0 0 1 .112-.449c.056-.056 1.963-1.626 4.654-2.41 2.524-.73 6.28-.898 9.645 2.467.112.112.168.28.112.448a.472.472 0 0 1-.392.224zm-12.393-.897h11.271c-2.299-1.906-4.99-2.411-7.962-1.514-1.346.449-2.524 1.066-3.309 1.514z"/><path fill="#FFDBD5" d="M92.645 66.103s7.514-6.224 13.738 0H92.645z"/><path fill="#8E8F92" d="M106.159 66.551H92.42a.422.422 0 0 1-.393-.28.436.436 0 0 1 .112-.449c.056-.056 1.963-1.626 4.654-2.41 2.524-.73 6.28-.898 9.645 2.467.112.112.168.28.112.448a.472.472 0 0 1-.392.224zm-12.393-.897h11.271c-2.299-1.906-4.99-2.411-7.962-1.514-1.346.449-2.524 1.066-3.309 1.514z"/></g><g fill-rule="nonzero"><path fill="#FFF" d="M177.43 23.206l-54.337 9.308c-2.355.393-3.925 2.636-3.532 4.99l.56 3.197 1.122 6.56 3.308 19.29c.561 3.309 3.701 5.496 7.01 4.935l52.654-9.028c2.355-.393 3.925-2.636 3.533-4.99l-3.59-21.029-1.12-6.56-.561-3.197c-.449-2.299-2.692-3.869-5.047-3.476z"/><g transform="translate(121.804 19)"><path fill="#BED2D6" stroke="#8E8F92" stroke-width="2.804" d="M65.103 39.533L10.766 48.84c-2.355.393-4.598-1.177-4.99-3.533L.505 14.523c-.393-2.355 1.177-4.598 3.532-4.99L58.374.224c2.355-.392 4.598 1.178 4.99 3.533l5.272 30.785c.392 2.3-1.234 4.542-3.533 4.99z"/><path fill="#FFF" d="M8.01 25.104l15.579-2.671 3.06 17.852-15.579 2.671z"/><rect width="33.166" height="2.14" x="28.475" y="18.666" fill="#FFF" rx="1.07" transform="rotate(-9.73 45.058 19.736)"/><rect width="33.166" height="2.14" x="29.475" y="23.666" fill="#FFF" rx="1.07" transform="rotate(-9.73 46.058 24.736)"/><rect width="19.269" height="2.14" x="30.575" y="29.491" fill="#FFF" rx="1.07" transform="rotate(-9.73 40.21 30.561)"/><g transform="rotate(-9.73 31.608 9.856)"><use fill="#93C4C9" fill-rule="evenodd" xlink:href="#a"/><path stroke="#8E8F92" stroke-width="3" d="M5.648 4.786h51.92a5.5 5.5 0 0 1 5.5 5.5v4.64H.148v-4.64a5.5 5.5 0 0 1 5.5-5.5z"/></g></g></g><path fill-rule="nonzero" d="M174.503 98.504c.501-.05.951-.5 1-1l.407-4.128c.05-.501.13-.501.18 0l.406 4.127c.05.501.5.951 1 1l4.128.407c.501.05.501.13 0 .18l-4.127.406c-.501.05-.951.5-1 1l-.407 4.128c-.05.501-.13.501-.18 0l-.406-4.127c-.05-.501-.5-.951-1-1l-4.128-.407c-.501-.05-.501-.13 0-.18l4.127-.406zM5.627 140.21a.68.68 0 0 0 .583-.583l.238-2.408c.028-.292.076-.292.104 0l.238 2.408a.68.68 0 0 0 .583.583l2.408.238c.292.028.292.076 0 .104l-2.408.238a.68.68 0 0 0-.583.583l-.238 2.408c-.028.292-.076.292-.104 0l-.238-2.408a.68.68 0 0 0-.583-.583l-2.408-.238c-.292-.028-.292-.076 0-.104l2.408-.238zm4 9a.68.68 0 0 0 .583-.583l.238-2.408c.028-.292.076-.292.104 0l.238 2.408a.68.68 0 0 0 .583.583l2.408.238c.292.028.292.076 0 .104l-2.408.238a.68.68 0 0 0-.583.583l-.238 2.408c-.028.292-.076.292-.104 0l-.238-2.408a.68.68 0 0 0-.583-.583l-2.408-.238c-.292-.028-.292-.076 0-.104l2.408-.238zm171-36a.68.68 0 0 0 .583-.583l.238-2.408c.028-.292.076-.292.104 0l.238 2.408a.68.68 0 0 0 .583.583l2.408.238c.292.028.292.076 0 .104l-2.408.238a.68.68 0 0 0-.583.583l-.238 2.408c-.028.292-.076.292-.104 0l-.238-2.408a.68.68 0 0 0-.583-.583l-2.408-.238c-.292-.028-.292-.076 0-.104l2.408-.238zm6.249-22.917a.485.485 0 0 0 .417-.417l.17-1.72c.02-.208.054-.208.074 0l.17 1.72c.02.209.208.397.417.417l1.72.17c.208.02.208.054 0 .074l-1.72.17a.485.485 0 0 0-.417.417l-.17 1.72c-.02.208-.054.208-.074 0l-.17-1.72a.485.485 0 0 0-.417-.417l-1.72-.17c-.208-.02-.208-.054 0-.074l1.72-.17z" fill="#8E8F92"/><path stroke="#979797" stroke-linecap="square" d="M141 21.133h9.412M87 7.133h37.647m-6.15 14h19.738M128 7.133h9.412"/><path fill-rule="nonzero" d="M140.377 12.128a.873.873 0 0 0 .75-.75l.306-3.096c.037-.376.097-.376.134 0l.305 3.095a.873.873 0 0 0 .75.75l3.096.306c.376.037.376.097 0 .134l-3.095.305a.873.873 0 0 0-.75.75l-.306 3.096c-.037.376-.097.376-.134 0l-.305-3.095a.873.873 0 0 0-.75-.75l-3.096-.306c-.376-.037-.376-.097 0-.134l3.095-.305z" fill="#8E8F92"/></g></svg>